<?xml version="1.0" encoding="utf-8"?>
<!-- Generator: Adobe Illustrator 22.0.0, SVG Export Plug-In . SVG Version: 6.00 Build 0)  -->
<svg version="1.1" id="Layer_1" xmlns="http://www.w3.org/2000/svg" xmlns:xlink="http://www.w3.org/1999/xlink" x="0px" y="0px"
	 viewBox="0 0 1728 1296" style="enable-background:new 0 0 1728 1296;" xml:space="preserve">
<style type="text/css">
	.st0{fill:#FF6347;}
</style>
<path class="st0" d="M984.2,449.3c-5.1-5.4-11.6-8-19.4-8c-7.7,0-14.2,2.7-19.3,8.1c-5.1,5.4-7.7,12.3-7.7,20.7
	c0,8.7,2.5,15.7,7.6,21.1c5.1,5.4,11.5,8,19.3,8c7.8,0,14.3-2.7,19.4-8.1c5.2-5.4,7.8-12.4,7.8-21
	C991.8,461.5,989.3,454.6,984.2,449.3z M984.2,449.3c-5.1-5.4-11.6-8-19.4-8c-7.7,0-14.2,2.7-19.3,8.1c-5.1,5.4-7.7,12.3-7.7,20.7
	c0,8.7,2.5,15.7,7.6,21.1c5.1,5.4,11.5,8,19.3,8c7.8,0,14.3-2.7,19.4-8.1c5.2-5.4,7.8-12.4,7.8-21
	C991.8,461.5,989.3,454.6,984.2,449.3z M704.8,449.3c-5.1-5.4-11.6-8-19.4-8c-7.7,0-14.2,2.7-19.3,8.1c-5.1,5.4-7.7,12.3-7.7,20.7
	c0,8.7,2.5,15.7,7.6,21.1c5.1,5.4,11.5,8,19.3,8c7.8,0,14.3-2.7,19.4-8.1c5.2-5.4,7.8-12.4,7.8-21
	C712.4,461.5,709.9,454.6,704.8,449.3z M704.8,449.3c-5.1-5.4-11.6-8-19.4-8c-7.7,0-14.2,2.7-19.3,8.1c-5.1,5.4-7.7,12.3-7.7,20.7
	c0,8.7,2.5,15.7,7.6,21.1c5.1,5.4,11.5,8,19.3,8c7.8,0,14.3-2.7,19.4-8.1c5.2-5.4,7.8-12.4,7.8-21
	C712.4,461.5,709.9,454.6,704.8,449.3z M585.5,449c-5.1-5.4-11.5-8.2-19.3-8.2c-7.8,0-14.3,2.7-19.5,8.1c-5.1,5.4-7.7,12.4-7.7,21
	c0,8.9,2.6,16,7.7,21.5c5.2,5.4,11.7,8.2,19.5,8.2c7.6,0,14-2.8,19.2-8.3c5.2-5.5,7.8-12.6,7.8-21.2
	C593.2,461.4,590.6,454.4,585.5,449z M585.5,449c-5.1-5.4-11.5-8.2-19.3-8.2c-7.8,0-14.3,2.7-19.5,8.1c-5.1,5.4-7.7,12.4-7.7,21
	c0,8.9,2.6,16,7.7,21.5c5.2,5.4,11.7,8.2,19.5,8.2c7.6,0,14-2.8,19.2-8.3c5.2-5.5,7.8-12.6,7.8-21.2
	C593.2,461.4,590.6,454.4,585.5,449z M984.2,449.3c-5.1-5.4-11.6-8-19.4-8c-7.7,0-14.2,2.7-19.3,8.1c-5.1,5.4-7.7,12.3-7.7,20.7
	c0,8.7,2.5,15.7,7.6,21.1c5.1,5.4,11.5,8,19.3,8c7.8,0,14.3-2.7,19.4-8.1c5.2-5.4,7.8-12.4,7.8-21
	C991.8,461.5,989.3,454.6,984.2,449.3z M984.2,449.3c-5.1-5.4-11.6-8-19.4-8c-7.7,0-14.2,2.7-19.3,8.1c-5.1,5.4-7.7,12.3-7.7,20.7
	c0,8.7,2.5,15.7,7.6,21.1c5.1,5.4,11.5,8,19.3,8c7.8,0,14.3-2.7,19.4-8.1c5.2-5.4,7.8-12.4,7.8-21
	C991.8,461.5,989.3,454.6,984.2,449.3z M984.2,449.3c-5.1-5.4-11.6-8-19.4-8c-7.7,0-14.2,2.7-19.3,8.1c-5.1,5.4-7.7,12.3-7.7,20.7
	c0,8.7,2.5,15.7,7.6,21.1c5.1,5.4,11.5,8,19.3,8c7.8,0,14.3-2.7,19.4-8.1c5.2-5.4,7.8-12.4,7.8-21
	C991.8,461.5,989.3,454.6,984.2,449.3z M984.2,449.3c-5.1-5.4-11.6-8-19.4-8c-7.7,0-14.2,2.7-19.3,8.1c-5.1,5.4-7.7,12.3-7.7,20.7
	c0,8.7,2.5,15.7,7.6,21.1c5.1,5.4,11.5,8,19.3,8c7.8,0,14.3-2.7,19.4-8.1c5.2-5.4,7.8-12.4,7.8-21
	C991.8,461.5,989.3,454.6,984.2,449.3z M704.8,449.3c-5.1-5.4-11.6-8-19.4-8c-7.7,0-14.2,2.7-19.3,8.1c-5.1,5.4-7.7,12.3-7.7,20.7
	c0,8.7,2.5,15.7,7.6,21.1c5.1,5.4,11.5,8,19.3,8c7.8,0,14.3-2.7,19.4-8.1c5.2-5.4,7.8-12.4,7.8-21
	C712.4,461.5,709.9,454.6,704.8,449.3z M984.2,449.3c-5.1-5.4-11.6-8-19.4-8c-7.7,0-14.2,2.7-19.3,8.1c-5.1,5.4-7.7,12.3-7.7,20.7
	c0,8.7,2.5,15.7,7.6,21.1c5.1,5.4,11.5,8,19.3,8c7.8,0,14.3-2.7,19.4-8.1c5.2-5.4,7.8-12.4,7.8-21
	C991.8,461.5,989.3,454.6,984.2,449.3z M984.2,449.3c-5.1-5.4-11.6-8-19.4-8c-7.7,0-14.2,2.7-19.3,8.1c-5.1,5.4-7.7,12.3-7.7,20.7
	c0,8.7,2.5,15.7,7.6,21.1c5.1,5.4,11.5,8,19.3,8c7.8,0,14.3-2.7,19.4-8.1c5.2-5.4,7.8-12.4,7.8-21
	C991.8,461.5,989.3,454.6,984.2,449.3z M704.8,449.3c-5.1-5.4-11.6-8-19.4-8c-7.7,0-14.2,2.7-19.3,8.1c-5.1,5.4-7.7,12.3-7.7,20.7
	c0,8.7,2.5,15.7,7.6,21.1c5.1,5.4,11.5,8,19.3,8c7.8,0,14.3-2.7,19.4-8.1c5.2-5.4,7.8-12.4,7.8-21
	C712.4,461.5,709.9,454.6,704.8,449.3z M880.7,94.1c-208.7,0-397.4,43.2-532.7,112.7c-131.5,67.6-212.5,160.2-212.5,262.3
	c0,0.7,0,1.3,0,2c1,101.3,81.9,193.1,212.5,260.3c-57.9,59.6-135.4,99.8-222.1,110.1c23.7,1.7,48.1,2.6,72.9,2.6
	c117.3,0,223.7-19.9,302-52.3C612.1,825,742,844.1,880.7,844.1c411.5,0,745.2-167.9,745.2-375S1292.3,94.1,880.7,94.1z M603.9,507.5
	c-9.4,10-20.4,15-33.2,15c-5.7,0-11-1-15.9-3.1c-4.9-2.1-9.8-5.4-14.6-10v10.5h-24.6v-138h24.6v49.4c4.5-4.5,9.4-7.9,14.6-10.2
	c5.2-2.3,10.8-3.4,16.7-3.4c12.9,0,23.9,4.9,32.9,14.7c9,9.8,13.6,22.4,13.6,37.8C617.9,485.1,613.2,497.5,603.9,507.5z
	 M730.5,496.4c-4.7,8.2-11,14.6-19,19.2c-8,4.6-16.8,6.9-26.5,6.9c-14.2,0-26.3-5.1-36.3-15.3c-10-10.2-15.1-22.5-15.1-37.1
	c0-15.6,5.7-28.5,17-38.9c9.9-9,21.4-13.5,34.3-13.5c9.4,0,18.1,2.3,26.3,7.1c8.2,4.7,14.6,11.1,19.2,19.1
	c4.6,8.1,6.9,16.8,6.9,26.1C737.4,479.4,735.1,488.2,730.5,496.4z M845.5,519.9h-24.6v-43.6c0-11.9-0.5-19.8-1.6-23.7
	c-1-3.9-2.9-6.9-5.5-8.9c-2.6-2.1-5.9-3.1-9.8-3.1c-5,0-9.4,1.7-12.9,5.1c-3.6,3.4-6.1,8.1-7.5,14.1c-0.7,3.1-1.1,9.8-1.1,20.2v39.9
	h-24.9v-99.6h24.9v10.2c5.6-4.8,10.7-8.1,15.3-10c4.6-1.9,9.3-2.8,14-2.8c9.8,0,18.1,3.4,25,10.3c5.8,5.9,8.6,14.6,8.6,26V519.9z
	 M893.6,523.2c0,9.5-0.9,16.5-2.8,21.2c-1.9,4.7-4.8,8.2-8.8,10.8c-4,2.5-8.8,3.8-14.5,3.8c-5,0-11.1-1.2-18.6-3.8v-19.7
	c3.9,1.9,7.3,2.9,10.3,2.9c3.2,0,5.5-0.9,7.1-2.9c1.6-1.9,2.3-5.4,2.3-10.4V420.3h24.9V523.2z M892.5,406.9
	c-3.1,3.2-6.8,4.7-11.1,4.7c-4.4,0-8.2-1.6-11.3-4.8c-3.1-3.2-4.7-7.1-4.7-11.7c0-4.4,1.5-8.1,4.6-11.3c3.1-3.1,6.8-4.6,11.1-4.6
	c4.4,0,8.2,1.6,11.3,4.8c3.1,3.1,4.7,7,4.7,11.5C897.2,399.9,895.6,403.7,892.5,406.9z M1009.9,496.4c-4.7,8.2-11,14.6-19,19.2
	c-8,4.6-16.8,6.9-26.5,6.9c-14.2,0-26.3-5.1-36.3-15.3c-10-10.2-15.1-22.5-15.1-37.1c0-15.6,5.7-28.5,17-38.9
	c9.9-9,21.4-13.5,34.3-13.5c9.4,0,18.1,2.3,26.3,7.1c8.2,4.7,14.6,11.1,19.2,19.1c4.6,8.1,6.9,16.8,6.9,26.1
	C1016.9,479.4,1014.5,488.2,1009.9,496.4z M1124,462.5c0,17.4-1.4,29.3-4.1,35.7c-3.4,7.8-8.3,13.8-14.8,18
	c-6.5,4.2-14.7,6.3-24.7,6.3c-10.8,0-19.6-2.5-26.3-7.4c-6.7-4.9-11.4-11.7-14.1-20.4c-1.9-6-2.9-17-2.9-33v-41.5h25.1v48
	c0,9.3,0.7,15.8,1.9,19.5c1.3,3.6,3.3,6.5,6.1,8.5c2.8,2,6.3,3,10.4,3c4.1,0,7.6-1,10.5-3c2.9-2,5-4.9,6.4-8.7c1-2.9,1.5-9,1.5-18.4
	v-48.8h24.9V462.5z M1188.5,441.8c-2.9-1.5-5.3-2.2-7.2-2.2c-3.8,0-7.1,2.4-9.7,7.1c-2.6,4.8-4,14.1-4,28.1l0.1,4.8v40.3h-24.7
	v-99.6h21.3v12.5c2.3-4.9,5.4-8.7,9.2-11.3c3.8-2.5,8-3.8,12.6-3.8c3.2,0,6.6,0.8,10.1,2.5L1188.5,441.8z M1232.2,518.2
	c-2.8,2.8-6.1,4.2-10.1,4.2c-3.9,0-7.3-1.4-10.1-4.2c-2.8-2.8-4.2-6.2-4.2-10.2c0-4,1.4-7.3,4.2-10.1c2.8-2.8,6.2-4.2,10.1-4.2
	c3.9,0,7.3,1.4,10.1,4.2c2.8,2.8,4.2,6.1,4.2,10.1C1236.4,512,1235,515.4,1232.2,518.2z M964.8,441.2c-7.7,0-14.2,2.7-19.3,8.1
	c-5.1,5.4-7.7,12.3-7.7,20.7c0,8.7,2.5,15.7,7.6,21.1c5.1,5.4,11.5,8,19.3,8c7.8,0,14.3-2.7,19.4-8.1c5.2-5.4,7.8-12.4,7.8-21
	c0-8.6-2.5-15.5-7.6-20.8C979.2,443.9,972.7,441.2,964.8,441.2z M685.3,441.2c-7.7,0-14.2,2.7-19.3,8.1c-5.1,5.4-7.7,12.3-7.7,20.7
	c0,8.7,2.5,15.7,7.6,21.1c5.1,5.4,11.5,8,19.3,8c7.8,0,14.3-2.7,19.4-8.1c5.2-5.4,7.8-12.4,7.8-21c0-8.6-2.5-15.5-7.6-20.8
	C699.7,443.9,693.2,441.2,685.3,441.2z M566.2,440.8c-7.8,0-14.3,2.7-19.5,8.1c-5.1,5.4-7.7,12.4-7.7,21c0,8.9,2.6,16,7.7,21.5
	c5.2,5.4,11.7,8.2,19.5,8.2c7.6,0,14-2.8,19.2-8.3c5.2-5.5,7.8-12.6,7.8-21.2c0-8.6-2.6-15.6-7.7-21
	C580.4,443.5,574,440.8,566.2,440.8z M984.2,449.3c-5.1-5.4-11.6-8-19.4-8c-7.7,0-14.2,2.7-19.3,8.1c-5.1,5.4-7.7,12.3-7.7,20.7
	c0,8.7,2.5,15.7,7.6,21.1c5.1,5.4,11.5,8,19.3,8c7.8,0,14.3-2.7,19.4-8.1c5.2-5.4,7.8-12.4,7.8-21
	C991.8,461.5,989.3,454.6,984.2,449.3z M984.2,449.3c-5.1-5.4-11.6-8-19.4-8c-7.7,0-14.2,2.7-19.3,8.1c-5.1,5.4-7.7,12.3-7.7,20.7
	c0,8.7,2.5,15.7,7.6,21.1c5.1,5.4,11.5,8,19.3,8c7.8,0,14.3-2.7,19.4-8.1c5.2-5.4,7.8-12.4,7.8-21
	C991.8,461.5,989.3,454.6,984.2,449.3z M984.2,449.3c-5.1-5.4-11.6-8-19.4-8c-7.7,0-14.2,2.7-19.3,8.1c-5.1,5.4-7.7,12.3-7.7,20.7
	c0,8.7,2.5,15.7,7.6,21.1c5.1,5.4,11.5,8,19.3,8c7.8,0,14.3-2.7,19.4-8.1c5.2-5.4,7.8-12.4,7.8-21
	C991.8,461.5,989.3,454.6,984.2,449.3z M984.2,449.3c-5.1-5.4-11.6-8-19.4-8c-7.7,0-14.2,2.7-19.3,8.1c-5.1,5.4-7.7,12.3-7.7,20.7
	c0,8.7,2.5,15.7,7.6,21.1c5.1,5.4,11.5,8,19.3,8c7.8,0,14.3-2.7,19.4-8.1c5.2-5.4,7.8-12.4,7.8-21
	C991.8,461.5,989.3,454.6,984.2,449.3z"/>
</svg>
